<?xml version="1.0" encoding="UTF-8"?>
<svg width="116px" height="32px" viewBox="0 0 116 32" version="1.1" xmlns="http://www.w3.org/2000/svg" xmlns:xlink="http://www.w3.org/1999/xlink">
    <!-- Generator: Sketch 55.2 (78181) - https://sketchapp.com -->
    <title>Group 24</title>
    <desc>Created with Sketch.</desc>
    <defs>
        <polygon id="path-1" points="4.96575342e-05 0.0688 24.481214 0.0688 24.481214 3.76628 4.96575342e-05 3.76628"></polygon>
    </defs>
    <g id="Symbols" stroke="none" stroke-width="1" fill="none" fill-rule="evenodd">
        <g id="desktop-/-nav-/-main-/-hover-/-redlines" transform="translate(-105.000000, -19.000000)">
            <g id="section/header">
                <g id="Group-24" transform="translate(105.000000, 19.000000)">
                    <path d="M31.2631024,21.5483 C32.6227257,22.3164 34.2804928,23.084 35.9715305,23.084 C38.0605236,23.084 39.4531195,22.0156 39.4861914,20.4798 C39.4861914,19.378 38.624236,18.3764 37.0656846,17.8089 L35.2088901,17.0745 C32.9210682,16.2064 30.9648592,14.871 30.9648592,12.4338 C30.9648592,9.5625 33.4847805,7.8264 36.5020716,7.8264 C38.1598387,7.8264 40.2157599,8.3273 41.5420134,8.9281 C41.5420134,9.596 41.2436709,10.3973 40.7793729,10.8646 C39.7183901,10.3973 38.1267668,9.8295 36.4358284,9.8295 C34.7115202,9.8295 33.4847805,10.7978 33.4847805,12.2669 C33.4847805,13.402 34.3138627,14.0697 35.9715305,14.704 L37.9278387,15.4719 C40.3815168,16.4401 42.0394825,17.8757 42.0394825,20.313 C42.0394825,23.2843 39.4861914,25.0202 35.9384586,25.0202 C33.5842942,25.0202 31.6611572,24.2192 30.3016332,23.351 C30.3348045,22.7499 30.7659312,21.9489 31.2631024,21.5483" id="Fill-1" fill="#0066CC"></path>
                    <path d="M56.0654815,21.54849 C56.5629507,22.67979 57.0602212,23.61109 57.6570055,24.04349 C57.358663,24.44259 56.6625637,24.77549 56.0324096,24.77549 C54.9381562,24.77549 54.5735705,24.11009 54.1092726,23.04569 L52.5838925,19.58599 C51.7550089,17.68979 51.1251527,17.12429 49.2683582,17.12429 C48.8371322,17.12429 48.207276,17.15749 47.4777075,17.25729 L47.4777075,24.57579 C47.1462932,24.64219 46.7151664,24.67559 46.2840397,24.67559 C45.7868685,24.67559 45.3888137,24.64219 45.0573,24.57579 L45.0573,0.32519 L45.2563274,0.12539 L46.1514541,0.12539 C47.2788788,0.12539 47.4777075,0.69089 47.4777075,1.78879 L47.4777075,15.16159 L48.903574,15.09519 C49.2352863,15.09519 49.467187,14.92879 49.6662144,14.62929 L53.2141459,9.37339 C53.7115158,8.60829 54.0761014,8.14239 55.0709404,8.14239 C55.5349404,8.14239 55.8335808,8.17579 56.2974815,8.20899 L56.4966082,8.47519 L52.28555,14.62929 C52.0202795,15.02839 51.7881801,15.32779 51.4898377,15.56069 C53.0481904,15.86009 53.9433171,16.79179 54.7725979,18.62129 L56.0654815,21.54849 Z" id="Fill-3" fill="#0066CC"></path>
                    <path d="M59.9128281,2.57359 C60.2443418,2.37329 60.8745952,2.23969 61.405037,2.23969 C61.869037,2.23969 62.5985062,2.37329 62.8969479,2.57359 C63.0297322,2.84059 63.1291466,3.40829 63.1291466,3.80899 C63.1291466,4.20959 63.0297322,4.77709 62.8969479,5.04419 C62.6316774,5.24439 61.869037,5.41139 61.405037,5.41139 C60.8745952,5.41139 60.2443418,5.24439 59.9128281,5.04419 C59.7803418,4.77709 59.6806295,4.20959 59.6806295,3.80899 C59.6806295,3.40829 59.7803418,2.84059 59.9128281,2.57359 L59.9128281,2.57359 Z M63.1621192,24.67539 C62.8307048,24.74199 62.3994788,24.77549 61.96865,24.77549 C61.4712801,24.77549 61.0401534,24.74199 60.7085404,24.67539 L60.7085404,11.78829 C60.7085404,10.55289 60.377126,10.18579 59.3492151,10.18579 L59.050674,10.18579 C58.951061,9.85179 58.917989,9.58469 58.917989,9.25079 C58.917989,8.95039 58.951061,8.68329 59.050674,8.34949 C59.7803418,8.24919 60.3439548,8.18239 60.7085404,8.18239 L60.9739103,8.18239 C62.3663075,8.18239 63.1621192,9.11739 63.1621192,10.58619 L63.1621192,24.67539 Z" id="Fill-5" fill="#0066CC"></path>
                    <path d="M73.2046603,22.74068 C73.3702185,23.07398 73.4366603,23.57438 73.4366603,24.07488 C73.4366603,24.24168 73.4366603,24.44168 73.4031911,24.57518 C72.740263,24.67508 71.6791808,24.77548 70.9827836,24.77548 C69.2919445,24.77548 68.1646192,23.80808 68.1646192,22.00658 L68.1646192,0.32568 L68.3635473,0.12538 L69.2587733,0.12538 C70.3859993,0.12538 70.5850267,0.69248 70.5850267,1.79328 L70.5850267,21.30598 C70.5850267,22.27348 71.0163521,22.74068 71.8118658,22.74068 L73.2046603,22.74068 Z" id="Fill-7" fill="#0066CC"></path>
                    <path d="M80.8974068,22.74068 C81.0628658,23.07398 81.1295062,23.57438 81.1295062,24.07488 C81.1295062,24.24168 81.1295062,24.44168 81.0961363,24.57518 C80.4331089,24.67508 79.3720267,24.77548 78.6756295,24.77548 C76.9847904,24.77548 75.8574651,23.80808 75.8574651,22.00658 L75.8574651,0.32568 L76.0563932,0.12538 L76.9516192,0.12538 C78.0788452,0.12538 78.2780712,0.69248 78.2780712,1.79328 L78.2780712,21.30598 C78.2780712,22.27348 78.7090986,22.74068 79.5046123,22.74068 L80.8974068,22.74068 Z" id="Fill-9" fill="#0066CC"></path>
                    <path d="M84.3461723,2.51798 C84.677686,2.31768 85.3074428,2.18418 85.8380832,2.18418 C86.3023812,2.18418 87.0318503,2.31768 87.3301928,2.51798 C87.4629771,2.78498 87.5624908,3.35268 87.5624908,3.75338 C87.5624908,4.15398 87.4629771,4.72148 87.3301928,4.98858 C87.0650216,5.18888 86.3023812,5.35588 85.8380832,5.35588 C85.3074428,5.35588 84.677686,5.18888 84.3461723,4.98858 C84.213388,4.72148 84.1140729,4.15398 84.1140729,3.75338 C84.1140729,3.35268 84.213388,2.78498 84.3461723,2.51798 L84.3461723,2.51798 Z M87.5954634,24.18558 C87.5954634,28.29228 87.7282476,30.66288 83.6496757,31.93118 C83.3180627,31.59758 83.0197202,31.06318 82.886936,30.36198 C84.7108572,29.39408 85.1417853,28.42558 85.1417853,26.22228 L85.1417853,11.73268 C85.1417853,10.49728 84.8104702,10.13018 83.7824599,10.13018 L83.1853777,10.13018 C83.1192339,9.79618 83.0529908,9.52908 83.0529908,9.19518 C83.0529908,8.89478 83.1192339,8.62768 83.1853777,8.29388 C83.9148469,8.19358 84.7438298,8.12678 85.2081277,8.12678 L85.4733983,8.12678 C86.799751,8.12678 87.5954634,9.06178 87.5954634,10.53058 L87.5954634,24.18558 Z" id="Fill-11" fill="#0066CC"></path>
                    <path d="M100.659934,20.24605 L100.659934,16.90745 C99.5323103,16.74055 98.2391288,16.67365 97.0453616,16.67365 C94.7574404,16.67365 93.2988,17.87575 93.2988,20.01245 C93.2988,21.61485 94.2270979,22.91705 95.9182349,22.91705 C97.4431185,22.91705 99.2668411,22.04865 100.659934,20.24605 M102.848242,24.85355 C101.654375,24.41925 101.057591,23.61805 100.792321,22.51645 C99.5653822,23.71815 97.7751288,25.02015 95.5865226,25.02015 C92.3701048,25.02015 90.8117521,22.54955 90.8117521,20.17935 C90.8117521,16.47335 93.3318719,14.80415 97.0122897,14.80415 C98.1396151,14.80415 99.4660671,14.87095 100.659934,15.10475 L100.659934,13.43535 C100.659934,10.93145 99.499139,10.02995 97.6754164,10.02995 C95.8515945,10.02995 93.9948993,10.63085 92.2706904,11.39875 C91.8064918,10.99815 91.4087349,10.13015 91.4087349,9.46225 C93.0666014,8.72785 95.5865226,7.89325 97.9075158,7.89325 C101.355934,7.89325 103.046773,9.86305 103.046773,13.46865 L103.046773,20.34615 C103.046773,21.74845 103.146386,22.78355 103.975468,23.58475 C103.809512,24.01895 103.345512,24.61975 102.848242,24.85355" id="Fill-13" fill="#0066CC"></path>
                    <path d="M107.590566,8.04898 C108.850477,8.51628 109.64609,9.58468 109.978001,11.02038 C110.740443,9.38448 112.16621,8.08238 114.420761,8.08238 C114.785744,8.08238 115.316285,8.11578 115.946141,8.21588 C115.946141,8.98368 115.780683,9.91858 115.382528,10.55298 C114.984474,10.51948 114.586816,10.51948 114.222131,10.51948 C112.066895,10.51948 110.840056,12.08868 110.17673,13.55768 L110.17673,24.67538 C109.845217,24.74198 109.414189,24.77548 108.983261,24.77548 C108.485792,24.77548 108.054566,24.74198 107.723251,24.67538 L107.723251,12.85658 C107.723251,11.18728 107.126268,10.01868 106.529583,9.45118 C106.66207,8.98368 107.126268,8.34948 107.590566,8.04898" id="Fill-15" fill="#0066CC"></path>
                    <path d="M17.1368449,24.75006 L2.45291336,24.75006 C1.10381747,24.75006 2.97945205e-05,23.63866 2.97945205e-05,22.28016 L2.97945205e-05,13.65756 L17.1368449,13.65756 L17.1368449,24.75006 Z" id="Fill-17" fill="#003366"></path>
                    <path d="M19.5849514,24.75006 L22.0283007,24.75006 C23.3773966,24.75006 24.4811842,23.63866 24.4811842,22.28016 L24.4811842,12.42506 L24.4811842,6.26256 L1.98630137e-05,6.26256 L1.98630137e-05,11.19256 L19.5849514,11.19256 L19.5849514,24.75006 Z" id="Fill-19" fill="#0066CC"></path>
                    <g id="Group-23" transform="translate(0.000000, 0.031200)">
                        <mask id="mask-2" fill="white">
                            <use xlink:href="#path-1"></use>
                        </mask>
                        <g id="Clip-22"></g>
                        <path d="M24.481214,2.53868 C24.481214,1.18028 23.3773271,0.06878 22.0282312,0.06878 L2.45293322,0.06878 C1.10383733,0.06878 4.96575342e-05,1.18028 4.96575342e-05,2.53868 L4.96575342e-05,3.76628 L24.481214,3.76628 L24.481214,2.53868 Z" id="Fill-21" fill="#A6CEF7" mask="url(#mask-2)"></path>
                    </g>
                </g>
            </g>
        </g>
    </g>
</svg>